<?xml version="1.0" encoding="UTF-8" standalone="no"?>
<!-- Generator: Adobe Illustrator 23.0.3, SVG Export Plug-In . SVG Version: 6.00 Build 0)  -->

<svg
   version="1.1"
   id="Layer_1"
   x="0px"
   y="0px"
   viewBox="0 0 24 24"
   xml:space="preserve"
   sodipodi:docname="user.svg"
   width="24"
   height="24"
   inkscape:version="1.1.2 (0a00cf5339, 2022-02-04, custom)"
   xmlns:inkscape="http://www.inkscape.org/namespaces/inkscape"
   xmlns:sodipodi="http://sodipodi.sourceforge.net/DTD/sodipodi-0.dtd"
   xmlns="http://www.w3.org/2000/svg"
   xmlns:svg="http://www.w3.org/2000/svg"><defs
   id="defs21" /><sodipodi:namedview
   id="namedview19"
   pagecolor="#505050"
   bordercolor="#eeeeee"
   borderopacity="1"
   inkscape:pageshadow="0"
   inkscape:pageopacity="0"
   inkscape:pagecheckerboard="0"
   showgrid="false"
   fit-margin-top="0"
   fit-margin-left="0"
   fit-margin-right="0"
   fit-margin-bottom="0"
   inkscape:zoom="14.684214"
   inkscape:cx="5.550178"
   inkscape:cy="13.007166"
   inkscape:window-width="1920"
   inkscape:window-height="1029"
   inkscape:window-x="0"
   inkscape:window-y="27"
   inkscape:window-maximized="1"
   inkscape:current-layer="Layer_1" />
<g
   id="g16"
   transform="matrix(0.8,0,0,0.8,-0.8,-0.8)">
	<g
   id="g4">
		<path
   d="M 16,31 C 7.7285156,31 1,24.270996 1,16 1,7.7290039 7.7285156,1 16,1 24.271484,1 31,7.7290039 31,16 31,24.270996 24.271484,31 16,31 Z M 16,3 C 8.8320313,3 3,8.831543 3,16 3,23.168457 8.8320313,29 16,29 23.167969,29 29,23.168457 29,16 29,8.831543 23.167969,3 16,3 Z"
   id="path2" />
	</g>
	<g
   id="g14">
		<g
   id="g8">
			<circle
   cx="16"
   cy="15.133333"
   r="4.2666669"
   id="circle6" />
		</g>
		<g
   id="g12">
			<path
   d="m 16,30 c 2.401123,0 4.660034,-0.606201 6.634888,-1.671265 C 22.210083,25.100037 19.455322,22.508301 16,22.508301 c -3.455322,0 -6.210083,2.591736 -6.6348877,5.820434 C 11.339966,29.393799 13.598877,30 16,30 Z"
   id="path10" />
		</g>
	</g>
</g>
</svg>
