<?xml version="1.0" encoding="UTF-8" standalone="no"?>
<!-- Generator: Adobe Illustrator 23.0.3, SVG Export Plug-In . SVG Version: 6.00 Build 0)  -->

<svg
   version="1.1"
   id="Layer_1"
   x="0px"
   y="0px"
   viewBox="0 0 24 24"
   xml:space="preserve"
   sodipodi:docname="contacts.svg"
   width="24"
   height="24"
   inkscape:version="1.1.2 (0a00cf5339, 2022-02-04, custom)"
   xmlns:inkscape="http://www.inkscape.org/namespaces/inkscape"
   xmlns:sodipodi="http://sodipodi.sourceforge.net/DTD/sodipodi-0.dtd"
   xmlns="http://www.w3.org/2000/svg"
   xmlns:svg="http://www.w3.org/2000/svg"><defs
   id="defs21" /><sodipodi:namedview
   id="namedview19"
   pagecolor="#505050"
   bordercolor="#eeeeee"
   borderopacity="1"
   inkscape:pageshadow="0"
   inkscape:pageopacity="0"
   inkscape:pagecheckerboard="0"
   showgrid="false"
   fit-margin-top="0"
   fit-margin-left="0"
   fit-margin-right="0"
   fit-margin-bottom="0"
   inkscape:zoom="11.528874"
   inkscape:cx="23.462829"
   inkscape:cy="20.904036"
   inkscape:window-width="1920"
   inkscape:window-height="1029"
   inkscape:window-x="0"
   inkscape:window-y="27"
   inkscape:window-maximized="1"
   inkscape:current-layer="Layer_1"
   inkscape:snap-center="true" />

<path
   id="rect850"
   style="fill:#ffcc00;stroke-width:3.60001;stroke-linecap:round;stroke-linejoin:round"
   d="M 12.035156 0.087890625 C 5.3871562 0.087890625 0.03515625 5.4398906 0.03515625 12.087891 C 0.03515625 18.735891 5.3871562 24.087891 12.035156 24.087891 C 18.683156 24.087891 24.035156 18.735891 24.035156 12.087891 C 24.035156 5.4398906 18.683156 0.087890625 12.035156 0.087890625 z M 11.888672 4.234375 L 12.183594 4.234375 C 16.534032 4.234375 20.035156 7.7374527 20.035156 12.087891 C 20.035156 16.438329 16.534032 19.939453 12.183594 19.939453 L 11.888672 19.939453 C 7.5382339 19.939453 4.0351562 16.438329 4.0351562 12.087891 C 4.0351562 7.7374527 7.5382339 4.234375 11.888672 4.234375 z " /><rect
   style="opacity:1;fill:#ffcc00;stroke-width:3.47578;stroke-linecap:round;stroke-linejoin:round;fill-opacity:1"
   id="rect970"
   width="10"
   height="10"
   x="7.0351562"
   y="7.0878906"
   ry="5" /></svg>
