<?xml version="1.0" encoding="UTF-8" standalone="no"?>
<svg
   width="24.000008"
   height="23.959457"
   viewBox="0 0 24.000008 23.959457"
   version="1.1"
   id="svg94"
   sodipodi:docname="link.svg"
   inkscape:version="1.1.2 (0a00cf5339, 2022-02-04, custom)"
   xmlns:inkscape="http://www.inkscape.org/namespaces/inkscape"
   xmlns:sodipodi="http://sodipodi.sourceforge.net/DTD/sodipodi-0.dtd"
   xmlns="http://www.w3.org/2000/svg"
   xmlns:svg="http://www.w3.org/2000/svg">
  <sodipodi:namedview
     id="namedview96"
     pagecolor="#505050"
     bordercolor="#eeeeee"
     borderopacity="1"
     inkscape:pageshadow="0"
     inkscape:pageopacity="0"
     inkscape:pagecheckerboard="0"
     showgrid="false"
     inkscape:zoom="3.214562"
     inkscape:cx="62.372416"
     inkscape:cy="13.998797"
     inkscape:window-width="1920"
     inkscape:window-height="1029"
     inkscape:window-x="0"
     inkscape:window-y="27"
     inkscape:window-maximized="1"
     inkscape:current-layer="iPhone_12_12_Pro_34"
     fit-margin-top="0"
     fit-margin-left="0"
     fit-margin-right="0"
     fit-margin-bottom="0" />
  <defs
     id="defs5">
    <clipPath
       id="clip-iPhone_12_12_Pro_34">
      <rect
         width="390"
         height="992"
         id="rect2"
         x="0"
         y="0" />
    </clipPath>
  </defs>
  <g
     id="iPhone_12_12_Pro_34"
     data-name="iPhone 12, 12 Pro – 34"
     clip-path="url(#clip-iPhone_12_12_Pro_34)"
     transform="translate(-83.332507,-73.035204)">
    <g
       id="Rectangle_172"
       data-name="Rectangle 172"
       transform="translate(-77.675585,105.0092)"
       fill="none"
       stroke="#f16550"
       stroke-width="1">
      <rect
         width="32"
         height="32"
         stroke="none"
         id="rect52"
         x="0"
         y="0" />
    </g>
    <path
       id="ios-globe"
       d="m 95.3481,73.035205 h -0.04055 a 11.979729,11.979729 0 0 0 0.0061,23.959457 H 95.3542 A 11.979729,11.979729 0 1 0 95.3481,73.035205 Z m 10.37874,11.173706 h -4.46874 a 22.707417,22.707417 0 0 0 -0.56397,-4.38888 17.594839,17.594839 0 0 0 2.86284,-1.209031 10.320995,10.320995 0 0 1 2.1711,5.597911 z m -11.181074,0 h -3.563201 a 20.462601,20.462601 0 0 1 0.507449,-3.98587 17.561664,17.561664 0 0 0 3.052066,0.409154 z m 0,1.61327 v 3.5632 A 17.624327,17.624327 0 0 0 91.4937,89.794535 20.554753,20.554753 0 0 1 90.986251,85.820952 h 3.563201 z m 1.61327,0 h 3.52634 a 20.347104,20.347104 0 0 1 -0.507449,3.968668 17.104592,17.104592 0 0 0 -3.023806,-0.40301 v -3.563201 z m 0,-1.61327 v -3.570573 a 17.693134,17.693134 0 0 0 3.023805,-0.40301 20.49209,20.49209 0 0 1 0.507449,3.973583 h -3.536169 z m 6.300724,-6.790969 a 16.061434,16.061434 0 0 1 -2.1969,0.893257 11.934265,11.934265 0 0 0 -1.526033,-3.139302 10.420519,10.420519 0 0 1 3.714333,2.246045 z m -3.713103,1.307326 A 16.141299,16.141299 0 0 1 96.15535,79.07053 v -4.226693 a 6.9740437,6.9740437 0 0 1 2.591307,3.881431 z M 94.54208,74.816805 v 4.24881 A 15.965596,15.965596 0 0 1 91.921284,78.71421 6.9789585,6.9789585 0 0 1 94.54208,74.816805 Z m -2.626939,0.368607 a 11.987098,11.987098 0 0 0 -1.514975,3.119644 16.414068,16.414068 0 0 1 -2.160037,-0.887114 10.254646,10.254646 0 0 1 3.675012,-2.23253 z m -4.774689,3.430502 a 17.18077,17.18077 0 0 0 2.833359,1.197973 21.733066,21.733066 0 0 0 -0.563969,4.38888 H 84.9755 a 10.262018,10.262018 0 0 1 2.166181,-5.586853 z m -2.171095,7.205038 h 4.434342 a 22.644754,22.644754 0 0 0 0.563968,4.38888 18.252188,18.252188 0 0 0 -2.833358,1.197973 10.320995,10.320995 0 0 1 -2.166181,-5.586853 z m 3.265858,6.790969 a 16.154814,16.154814 0 0 1 2.16618,-0.887114 12.052219,12.052219 0 0 0 1.514975,3.119645 10.521271,10.521271 0 0 1 -3.679927,-2.234989 z m 3.686069,-1.301183 a 16.03686,16.03686 0 0 1 2.620796,-0.351405 v 4.253729 a 6.9703576,6.9703576 0 0 1 -2.620796,-3.902324 z m 4.232837,3.876514 v -4.232834 a 16.281369,16.281369 0 0 1 2.591307,0.345262 6.9765011,6.9765011 0 0 1 -2.591307,3.887572 z m 2.591307,-0.32806 a 11.877745,11.877745 0 0 0 1.526032,-3.1393 15.771463,15.771463 0 0 1 2.1883,0.898172 10.54093,10.54093 0 0 1 -3.714332,2.239898 z m 4.809082,-3.440329 a 17.486714,17.486714 0 0 0 -2.86284,-1.209031 22.593149,22.593149 0 0 0 0.56397,-4.382737 h 4.46874 a 10.279219,10.279219 0 0 1 -2.17109,5.592997 z"
       fill="#192837"
       style="stroke-width:0.029;fill:#0b0000;fill-opacity:1;stroke:#000000;stroke-opacity:0.50196081;stroke-miterlimit:4;stroke-dasharray:none;opacity:0.50114648" />
  </g>
</svg>
