<?xml version="1.0" encoding="UTF-8" standalone="no"?>
<!-- Created with Inkscape (http://www.inkscape.org/) -->

<svg
   width="14mm"
   height="20mm"
   viewBox="0 0 14 20"
   version="1.1"
   id="svg5"
   inkscape:version="1.1.2 (0a00cf5339, 2022-02-04, custom)"
   sodipodi:docname="moving.svg"
   xmlns:inkscape="http://www.inkscape.org/namespaces/inkscape"
   xmlns:sodipodi="http://sodipodi.sourceforge.net/DTD/sodipodi-0.dtd"
   xmlns="http://www.w3.org/2000/svg"
   xmlns:svg="http://www.w3.org/2000/svg">
  <sodipodi:namedview
     id="namedview7"
     pagecolor="#505050"
     bordercolor="#eeeeee"
     borderopacity="1"
     inkscape:pageshadow="0"
     inkscape:pageopacity="0"
     inkscape:pagecheckerboard="0"
     inkscape:document-units="mm"
     showgrid="false"
     inkscape:snap-center="true"
     fit-margin-top="0"
     fit-margin-left="0"
     fit-margin-right="0"
     fit-margin-bottom="0"
     inkscape:zoom="3.1432498"
     inkscape:cx="32.29142"
     inkscape:cy="78.899233"
     inkscape:window-width="1920"
     inkscape:window-height="1029"
     inkscape:window-x="0"
     inkscape:window-y="27"
     inkscape:window-maximized="1"
     inkscape:current-layer="layer1" />
  <defs
     id="defs2" />
  <g
     inkscape:label="Layer 1"
     inkscape:groupmode="layer"
     id="layer1"
     transform="translate(-9.9649506,-46.49678)">
    <path
       id="rect846"
       style="fill:#000000;fill-opacity:0.501961;stroke:none;stroke-width:1.32299;stroke-linecap:round;stroke-linejoin:round"
       d="m 13.964875,48.49701 c -1.108,0 -1.999878,0.891878 -1.999878,1.999878 0,1.108 0.891878,1.999878 1.999878,1.999878 1.108,0 2.000395,-0.891878 2.000395,-1.999878 0,-1.108 -0.892395,-1.999878 -2.000395,-1.999878 z m 6.000151,0 c -1.108,0 -1.999878,0.891878 -1.999878,1.999878 0,1.108 0.891878,1.999878 1.999878,1.999878 1.108,0 1.999878,-0.891878 1.999878,-1.999878 0,-1.108 -0.891878,-1.999878 -1.999878,-1.999878 z m -6.000151,5.999634 c -1.108,0 -1.999878,0.891878 -1.999878,1.999878 0,1.108 0.891878,2.000395 1.999878,2.000395 1.108,0 2.000395,-0.892395 2.000395,-2.000395 0,-1.108 -0.892395,-1.999878 -2.000395,-1.999878 z m 6.000151,0 c -1.108,0 -1.999878,0.891878 -1.999878,1.999878 0,1.108 0.891878,2.000395 1.999878,2.000395 1.108,0 1.999878,-0.892395 1.999878,-2.000395 0,-1.108 -0.891878,-1.999878 -1.999878,-1.999878 z m -6.000151,6.000151 c -1.108,0 -1.999878,0.891878 -1.999878,1.999878 0,1.108 0.891878,1.999877 1.999878,1.999877 1.108,0 2.000395,-0.891877 2.000395,-1.999877 0,-1.108 -0.892395,-1.999878 -2.000395,-1.999878 z m 6.000151,0 c -1.108,0 -1.999878,0.891878 -1.999878,1.999878 0,1.108 0.891878,1.999877 1.999878,1.999877 1.108,0 1.999878,-0.891877 1.999878,-1.999877 0,-1.108 -0.891878,-1.999878 -1.999878,-1.999878 z" />
  </g>
</svg>
