<?xml version="1.0" encoding="UTF-8" standalone="no"?>
<svg
   viewBox="0 0 24 24"
   version="1.1"
   id="svg4"
   sodipodi:docname="settings.svg"
   inkscape:version="1.1.2 (0a00cf5339, 2022-02-04, custom)"
   xmlns:inkscape="http://www.inkscape.org/namespaces/inkscape"
   xmlns:sodipodi="http://sodipodi.sourceforge.net/DTD/sodipodi-0.dtd"
   xmlns="http://www.w3.org/2000/svg"
   xmlns:svg="http://www.w3.org/2000/svg">
  <defs
     id="defs8" />
  <sodipodi:namedview
     id="namedview6"
     pagecolor="#505050"
     bordercolor="#eeeeee"
     borderopacity="1"
     inkscape:pageshadow="0"
     inkscape:pageopacity="0"
     inkscape:pagecheckerboard="0"
     showgrid="false"
     inkscape:zoom="12.427534"
     inkscape:cx="3.9026246"
     inkscape:cy="12.794171"
     inkscape:window-width="1920"
     inkscape:window-height="1029"
     inkscape:window-x="0"
     inkscape:window-y="27"
     inkscape:window-maximized="1"
     inkscape:current-layer="svg4" />
  <path
     d="m 22.910602,9.643803 h -1.8852 c -0.510046,-0.010735 -0.962095,-0.3311149 -1.1412,-0.8088 l -0.006,-0.0156 c -0.207833,-0.4644621 -0.112871,-1.008592 0.24,-1.3752 l 1.332,-1.332 c 0.473031,-0.4732666 0.473031,-1.2403334 0,-1.7136 l -1.68,-1.68 c -0.473267,-0.473031 -1.240333,-0.473031 -1.7136,0 l -1.332,1.332 c -0.366608,0.3528712 -0.910738,0.4478328 -1.3752,0.24 h -0.0156 c -0.482505,-0.1796574 -0.805157,-0.637184 -0.8124,-1.152 v -1.884 c 0,-0.66870637 -0.542094,-1.21079999 -1.2108,-1.21079999 h -2.3784 c -0.668706,-1.7e-7 -1.2108003,0.5420935 -1.2108003,1.21079999 v 1.884 c -0.01058,0.5103783 -0.3309273,0.9628572 -0.8088,1.1424 h -0.0156 c -0.4644621,0.2078328 -1.008592,0.1128712 -1.3752,-0.24 l -1.332,-1.332 c -0.4732666,-0.473031 -1.2403334,-0.473031 -1.7136,0 l -1.68,1.68 c -0.473031,0.4732666 -0.473031,1.2403334 0,1.7136 l 1.332,1.332 c 0.3528712,0.366608 0.4478328,0.9107379 0.24,1.3752 v 0.0156 c -0.1772556,0.4846787 -0.6347928,0.8100597 -1.1508,0.8184 h -1.8852 c -0.66870638,0 -1.21080001,0.542094 -1.21080001,1.2108 v 2.3784 c 0,0.668706 0.54209363,1.2108 1.21080001,1.2108 h 1.8852 c 0.5100456,0.01073 0.9620946,0.331115 1.1412,0.8088 v 0.0156 c 0.2078328,0.464462 0.1128712,1.008592 -0.24,1.3752 l -1.332,1.332 c -0.473031,0.473267 -0.473031,1.240333 0,1.7136 l 1.68,1.68 c 0.4732666,0.473031 1.2403334,0.473031 1.7136,0 l 1.332,-1.332 c 0.366608,-0.352871 0.9107379,-0.447833 1.3752,-0.24 l 0.0156,0.006 c 0.4826636,0.176466 0.8076046,0.631002 0.8184,1.1448 v 1.8852 c 0,0.668706 0.5420943,1.2108 1.2108003,1.2108 h 2.3784 c 0.668706,0 1.2108,-0.542094 1.2108,-1.2108 v -1.8852 c 0.01074,-0.510046 0.331115,-0.962095 0.8088,-1.1412 l 0.0156,-0.006 c 0.464462,-0.207833 1.008592,-0.112871 1.3752,0.24 l 1.332,1.332 c 0.473267,0.473031 1.240333,0.473031 1.7136,0 l 1.68,-1.68 c 0.473031,-0.473267 0.473031,-1.240333 0,-1.7136 l -1.332,-1.332 c -0.352871,-0.366608 -0.447833,-0.910738 -0.24,-1.3752 l 0.006,-0.0156 c 0.178422,-0.480303 0.632522,-0.802552 1.1448,-0.8124 h 1.8852 c 0.668706,0 1.2108,-0.542094 1.2108,-1.2108 v -2.3784 c 0,-0.668706 -0.542094,-1.2108 -1.2108,-1.2108 z"
     id="path2"
     style="stroke-width:1.2;fill:#00aad4"
     sodipodi:nodetypes="sccccccccccccssssccccccccccccssssccccccccccccssssccccccccccccssss" />
</svg>
