<?xml version="1.0" encoding="UTF-8" standalone="no"?>
<svg
   width="24"
   height="23.999998"
   viewBox="0 0 24.000001 23.999998"
   version="1.1"
   id="svg94"
   sodipodi:docname="crypto.svg"
   inkscape:version="1.1.2 (0a00cf5339, 2022-02-04, custom)"
   xmlns:inkscape="http://www.inkscape.org/namespaces/inkscape"
   xmlns:sodipodi="http://sodipodi.sourceforge.net/DTD/sodipodi-0.dtd"
   xmlns="http://www.w3.org/2000/svg"
   xmlns:svg="http://www.w3.org/2000/svg">
  <sodipodi:namedview
     id="namedview96"
     pagecolor="#505050"
     bordercolor="#eeeeee"
     borderopacity="1"
     inkscape:pageshadow="0"
     inkscape:pageopacity="0"
     inkscape:pagecheckerboard="0"
     showgrid="false"
     inkscape:zoom="4.9142435"
     inkscape:cx="0.91570554"
     inkscape:cy="28.692107"
     inkscape:window-width="1920"
     inkscape:window-height="1029"
     inkscape:window-x="0"
     inkscape:window-y="27"
     inkscape:window-maximized="1"
     inkscape:current-layer="iPhone_12_12_Pro_34"
     fit-margin-top="0"
     fit-margin-left="0"
     fit-margin-right="0"
     fit-margin-bottom="0" />
  <defs
     id="defs5">
    <clipPath
       id="clip-iPhone_12_12_Pro_34">
      <rect
         width="390"
         height="992"
         id="rect2"
         x="0"
         y="0" />
    </clipPath>
  </defs>
  <g
     id="iPhone_12_12_Pro_34"
     data-name="iPhone 12, 12 Pro – 34"
     clip-path="url(#clip-iPhone_12_12_Pro_34)"
     transform="translate(-316.43625,-77.739232)">
    <g
       id="Rectangle_172"
       data-name="Rectangle 172"
       transform="translate(-77.675585,105.0092)"
       fill="none"
       stroke="#f16550"
       stroke-width="1">
      <rect
         width="32"
         height="32"
         stroke="none"
         id="rect52"
         x="0"
         y="0" />
    </g>
    <path
       id="btc"
       d="m 335.81436,85.180203 a 3.418,3.418 0 0 1 -1.889,3.721 4.329,4.329 0 0 1 2.524,1.486 4.279,4.279 0 0 1 0.649,3.087 5.451,5.451 0 0 1 -0.469,1.8 3.989,3.989 0 0 1 -0.93,1.284 4.723,4.723 0 0 1 -1.4,0.844 8.554,8.554 0 0 1 -1.752,0.5 17.21,17.21 0 0 1 -2.1,0.216 v 3.676997 h -2.219 v -3.619997 q -1.154,0 -1.76,-0.014 v 3.633997 h -2.224 v -3.674997 q -0.26,0 -0.779,-0.007 -0.519,-0.007 -0.793,-0.007 h -2.882 l 0.447,-2.639 h 1.6 a 0.771,0.771 0 0 0 0.837,-0.736 v -5.8 h 0.231 a 1.517,1.517 0 0 0 -0.231,-0.014 v -4.141 a 1.146,1.146 0 0 0 -1.283,-0.981 h -1.601 v -2.365 l 3.054,0.014 q 0.923,0 1.4,-0.014 v -3.635 h 2.224 v 3.563 q 1.183,-0.029 1.76,-0.029 v -3.534 h 2.221 v 3.635 a 12.837,12.837 0 0 1 2.019,0.325 6.582,6.582 0 0 1 1.63,0.649 3.3,3.3 0 0 1 1.19,1.125 3.677,3.677 0 0 1 0.526,1.651 z m -3.1,7.861 a 1.927,1.927 0 0 0 -0.216,-0.923 2.146,2.146 0 0 0 -0.534,-0.663 2.769,2.769 0 0 0 -0.829,-0.44 6.94,6.94 0 0 0 -0.945,-0.268 8.468,8.468 0 0 0 -1.067,-0.13 q -0.633,-0.043 -0.995,-0.043 -0.362,0 -0.93,0.014 -0.568,0.014 -0.685,0.014 v 4.875 q 0.115,0 0.534,0.007 0.419,0.007 0.692,0.007 0.273,0 0.764,-0.022 0.491,-0.022 0.844,-0.058 0.353,-0.036 0.822,-0.123 a 5.561,5.561 0 0 0 0.8,-0.2 4.884,4.884 0 0 0 0.685,-0.3 2,2 0 0 0 0.57,-0.433 2.041,2.041 0 0 0 0.353,-0.577 1.912,1.912 0 0 0 0.137,-0.736 z m -1.025,-6.865 a 1.9,1.9 0 0 0 -0.18,-0.844 2,2 0 0 0 -0.44,-0.606 2.164,2.164 0 0 0 -0.692,-0.4 4.915,4.915 0 0 0 -0.793,-0.238 7.946,7.946 0 0 0 -0.887,-0.115 q -0.526,-0.043 -0.837,-0.036 l -0.779,0.014 -0.57,0.007 v 4.428 l 0.5,0.007 q 0.426,0.007 0.671,0 0.245,-0.007 0.721,-0.029 a 6.224,6.224 0 0 0 0.793,-0.079 q 0.317,-0.057 0.743,-0.159 a 2.481,2.481 0 0 0 0.7,-0.267 3.908,3.908 0 0 0 0.534,-0.389 1.382,1.382 0 0 0 0.389,-0.555 2.026,2.026 0 0 0 0.13,-0.736 z"
       fill="#192837"
       style="fill:#0b0000;fill-opacity:1" />
  </g>
</svg>
