<?xml version="1.0" encoding="UTF-8" standalone="no"?>
<svg
   width="24"
   height="24"
   viewBox="0 0 24 23.999999"
   version="1.1"
   id="svg94"
   sodipodi:docname="email.svg"
   inkscape:version="1.1.2 (0a00cf5339, 2022-02-04, custom)"
   xmlns:inkscape="http://www.inkscape.org/namespaces/inkscape"
   xmlns:sodipodi="http://sodipodi.sourceforge.net/DTD/sodipodi-0.dtd"
   xmlns="http://www.w3.org/2000/svg"
   xmlns:svg="http://www.w3.org/2000/svg">
  <sodipodi:namedview
     id="namedview96"
     pagecolor="#505050"
     bordercolor="#eeeeee"
     borderopacity="1"
     inkscape:pageshadow="0"
     inkscape:pageopacity="0"
     inkscape:pagecheckerboard="0"
     showgrid="false"
     inkscape:zoom="5.3218387"
     inkscape:cx="-43.687908"
     inkscape:cy="30.064797"
     inkscape:window-width="1920"
     inkscape:window-height="1029"
     inkscape:window-x="0"
     inkscape:window-y="27"
     inkscape:window-maximized="1"
     inkscape:current-layer="iPhone_12_12_Pro_34"
     fit-margin-top="0"
     fit-margin-left="0"
     fit-margin-right="0"
     fit-margin-bottom="0" />
  <defs
     id="defs5">
    <clipPath
       id="clip-iPhone_12_12_Pro_34">
      <rect
         width="390"
         height="992"
         id="rect2"
         x="0"
         y="0" />
    </clipPath>
  </defs>
  <g
     id="iPhone_12_12_Pro_34"
     data-name="iPhone 12, 12 Pro – 34"
     clip-path="url(#clip-iPhone_12_12_Pro_34)"
     transform="translate(-227.12999,-76.264963)">
    <g
       id="Rectangle_172"
       data-name="Rectangle 172"
       transform="translate(-77.675585,105.0092)"
       fill="none"
       stroke="#f16550"
       stroke-width="1">
      <rect
         width="32"
         height="32"
         stroke="none"
         id="rect52"
         x="0"
         y="0" />
    </g>
    <path
       id="mail"
       d="m 248.19317,78.845325 h -18 a 3.0034286,3.0034286 0 0 0 -3,3 v 12.857143 a 3.0034286,3.0034286 0 0 0 3,3 h 18 a 3.0034286,3.0034286 0 0 0 3,-3 V 81.845325 a 3.0034286,3.0034286 0 0 0 -3,-3 z m -0.76,4.962286 -7.71429,6 a 0.85714286,0.85714286 0 0 1 -1.05257,0 l -7.71428,-6 a 0.85716134,0.85716134 0 0 1 1.05257,-1.353143 l 7.18857,5.590857 7.18857,-5.590857 a 0.85716134,0.85716134 0 1 1 1.05257,1.353143 z"
       fill="#192837"
       style="stroke-width:1.14286" />
  </g>
</svg>
