<?xml version="1.0" encoding="UTF-8" standalone="no"?>
<svg
   width="24"
   height="24"
   viewBox="0 0 24.000001 24"
   version="1.1"
   id="svg94"
   sodipodi:docname="locate.svg"
   inkscape:version="1.1.2 (0a00cf5339, 2022-02-04, custom)"
   xmlns:inkscape="http://www.inkscape.org/namespaces/inkscape"
   xmlns:sodipodi="http://sodipodi.sourceforge.net/DTD/sodipodi-0.dtd"
   xmlns="http://www.w3.org/2000/svg"
   xmlns:svg="http://www.w3.org/2000/svg">
  <sodipodi:namedview
     id="namedview96"
     pagecolor="#505050"
     bordercolor="#eeeeee"
     borderopacity="1"
     inkscape:pageshadow="0"
     inkscape:pageopacity="0"
     inkscape:pagecheckerboard="0"
     showgrid="false"
     inkscape:zoom="5.4070406"
     inkscape:cx="-47.992982"
     inkscape:cy="47.90051"
     inkscape:window-width="1920"
     inkscape:window-height="1029"
     inkscape:window-x="0"
     inkscape:window-y="27"
     inkscape:window-maximized="1"
     inkscape:current-layer="iPhone_12_12_Pro_34"
     fit-margin-top="0"
     fit-margin-left="0"
     fit-margin-right="0"
     fit-margin-bottom="0" />
  <defs
     id="defs5">
    <clipPath
       id="clip-iPhone_12_12_Pro_34">
      <rect
         width="390"
         height="992"
         id="rect2"
         x="0"
         y="0" />
    </clipPath>
  </defs>
  <g
     id="iPhone_12_12_Pro_34"
     data-name="iPhone 12, 12 Pro – 34"
     clip-path="url(#clip-iPhone_12_12_Pro_34)"
     transform="translate(-276.62939,-70.61717)">
    <g
       id="Rectangle_172"
       data-name="Rectangle 172"
       transform="translate(-77.675585,105.0092)"
       fill="none"
       stroke="#f16550"
       stroke-width="1">
      <rect
         width="32"
         height="32"
         stroke="none"
         id="rect52"
         x="0"
         y="0" />
    </g>
    <g
       id="location"
       transform="matrix(1.1428571,0,0,1.1428571,274.76658,68.902884)">
      <path
         id="Path_204"
         data-name="Path 204"
         d="M 12,13.5 A 3.75,3.75 0 1 1 15.75,9.75 3.75,3.75 0 0 1 12,13.5 Z m 0,-6 A 2.25,2.25 0 1 0 14.25,9.75 2.25,2.25 0 0 0 12,7.5 Z"
         fill="#192837" />
      <path
         id="Path_205"
         data-name="Path 205"
         d="M 12,22.5 5.673,15.038 Q 5.541,14.87 5.412,14.7 A 8.167,8.167 0 0 1 3.75,9.75 a 8.25,8.25 0 0 1 16.5,0 8.163,8.163 0 0 1 -1.661,4.95 v 0 c 0,0 -0.225,0.3 -0.259,0.335 z M 6.609,13.8 c 0,0 0.176,0.231 0.215,0.28 L 12,20.181 17.183,14.068 c 0.033,-0.041 0.209,-0.274 0.209,-0.274 a 6.676,6.676 0 0 0 1.358,-4.044 6.75,6.75 0 1 0 -13.5,0 6.679,6.679 0 0 0 1.36,4.05 z"
         fill="#192837" />
    </g>
  </g>
</svg>
