<?xml version="1.0" encoding="UTF-8" standalone="no"?>
<svg
   width="24"
   height="23.99151"
   viewBox="0 0 24 23.99151"
   version="1.1"
   id="svg94"
   sodipodi:docname="phone.svg"
   inkscape:version="1.1.2 (0a00cf5339, 2022-02-04, custom)"
   xmlns:inkscape="http://www.inkscape.org/namespaces/inkscape"
   xmlns:sodipodi="http://sodipodi.sourceforge.net/DTD/sodipodi-0.dtd"
   xmlns="http://www.w3.org/2000/svg"
   xmlns:svg="http://www.w3.org/2000/svg">
  <sodipodi:namedview
     id="namedview96"
     pagecolor="#505050"
     bordercolor="#eeeeee"
     borderopacity="1"
     inkscape:pageshadow="0"
     inkscape:pageopacity="0"
     inkscape:pagecheckerboard="0"
     showgrid="false"
     inkscape:zoom="2.9231161"
     inkscape:cx="123.66939"
     inkscape:cy="-14.368228"
     inkscape:window-width="1920"
     inkscape:window-height="1029"
     inkscape:window-x="0"
     inkscape:window-y="27"
     inkscape:window-maximized="1"
     inkscape:current-layer="iPhone_12_12_Pro_34"
     fit-margin-top="0"
     fit-margin-left="0"
     fit-margin-right="0"
     fit-margin-bottom="0" />
  <defs
     id="defs5">
    <clipPath
       id="clip-iPhone_12_12_Pro_34">
      <rect
         width="390"
         height="992"
         id="rect2"
         x="0"
         y="0" />
    </clipPath>
  </defs>
  <g
     id="iPhone_12_12_Pro_34"
     data-name="iPhone 12, 12 Pro – 34"
     clip-path="url(#clip-iPhone_12_12_Pro_34)"
     transform="translate(-130.76804,-72.872026)">
    <g
       id="Rectangle_172"
       data-name="Rectangle 172"
       transform="translate(-77.675585,105.0092)"
       fill="none"
       stroke="#f16550"
       stroke-width="1">
      <rect
         width="32"
         height="32"
         stroke="none"
         id="rect52"
         x="0"
         y="0" />
    </g>
    <path
       id="phone"
       d="m 151.54963,96.278377 h -0.1498 C 134.15286,95.283608 131.70338,80.73305 131.36165,76.292865 a 2.6332144,2.6332144 0 0 1 2.42256,-2.835679 h 4.83692 a 1.7554763,1.7554763 0 0 1 1.63259,1.111801 l 1.33416,3.276889 a 1.7554763,1.7554763 0 0 1 -0.3862,1.895915 l -1.87251,1.886552 a 8.2238212,8.2238212 0 0 0 6.65326,6.67081 l 1.9041,-1.886552 a 1.7554763,1.7554763 0 0 1 1.90762,-0.359288 l 3.30966,1.32597 a 1.7554763,1.7554763 0 0 1 1.07903,1.631423 v 4.634457 a 2.6332144,2.6332144 0 0 1 -2.63321,2.633214 z M 133.99486,75.212662 a 0.87773814,0.87773814 0 0 0 -0.87773,0.877738 v 0.07022 c 0.40375,5.19621 2.99367,17.484544 18.37983,18.362282 a 0.87773814,0.87773814 0 0 0 0.93626,-0.819222 v -4.692973 l -3.30966,-1.32597 -2.52438,2.502139 -0.42131,-0.05267 c -7.63632,-0.957319 -8.67205,-8.592471 -8.67205,-8.672052 l -0.0527,-0.421315 2.49278,-2.518523 -1.31661,-3.309658 z"
       fill="#192837"
       stroke="#192837"
       stroke-width="1.17032" />
  </g>
</svg>
