<?xml version="1.0" encoding="UTF-8" standalone="no"?>
<svg
   width="24.000002"
   height="23.943811"
   viewBox="0 0 24.000002 23.943811"
   version="1.1"
   id="svg94"
   sodipodi:docname="info.svg"
   inkscape:version="1.1.2 (0a00cf5339, 2022-02-04, custom)"
   xmlns:inkscape="http://www.inkscape.org/namespaces/inkscape"
   xmlns:sodipodi="http://sodipodi.sourceforge.net/DTD/sodipodi-0.dtd"
   xmlns="http://www.w3.org/2000/svg"
   xmlns:svg="http://www.w3.org/2000/svg">
  <sodipodi:namedview
     id="namedview96"
     pagecolor="#505050"
     bordercolor="#eeeeee"
     borderopacity="1"
     inkscape:pageshadow="0"
     inkscape:pageopacity="0"
     inkscape:pagecheckerboard="0"
     showgrid="false"
     inkscape:zoom="3.3455087"
     inkscape:cx="-4.6330772"
     inkscape:cy="2.3912656"
     inkscape:window-width="1920"
     inkscape:window-height="1029"
     inkscape:window-x="0"
     inkscape:window-y="27"
     inkscape:window-maximized="1"
     inkscape:current-layer="iPhone_12_12_Pro_34"
     fit-margin-top="0"
     fit-margin-left="0"
     fit-margin-right="0"
     fit-margin-bottom="0" />
  <defs
     id="defs5">
    <clipPath
       id="clip-iPhone_12_12_Pro_34">
      <rect
         width="390"
         height="992"
         id="rect2"
         x="0"
         y="0" />
    </clipPath>
  </defs>
  <g
     id="iPhone_12_12_Pro_34"
     data-name="iPhone 12, 12 Pro – 34"
     clip-path="url(#clip-iPhone_12_12_Pro_34)"
     transform="translate(-174.57818,-72.522482)">
    <g
       id="Rectangle_172"
       data-name="Rectangle 172"
       transform="translate(-77.675585,105.0092)"
       fill="none"
       stroke="#f16550"
       stroke-width="1">
      <rect
         width="32"
         height="32"
         stroke="none"
         id="rect52"
         x="0"
         y="0" />
    </g>
    <path
       id="info-outline"
       d="m 185.37032,90.507419 v -7.193584 h 2.41674 v 7.193584 z m 1.20786,-17.983455 a 11.562743,11.562743 0 0 1 8.48643,3.512322 11.532395,11.532395 0 0 1 3.51232,8.458102 11.532395,11.532395 0 0 1 -3.51232,8.458101 11.562743,11.562743 0 0 1 -8.48643,3.512322 11.562743,11.562743 0 0 1 -8.48642,-3.512322 11.532395,11.532395 0 0 1 -3.51233,-8.458101 11.532395,11.532395 0 0 1 3.51233,-8.458102 11.562743,11.562743 0 0 1 8.48642,-3.512322 z m 0,21.580753 a 9.2279391,9.2279391 0 0 0 6.77174,-2.810263 9.2684037,9.2684037 0 0 0 2.81027,-6.800066 9.2572759,9.2572759 0 0 0 -2.81027,-6.800067 9.2319856,9.2319856 0 0 0 -6.77174,-2.810262 9.2319856,9.2319856 0 0 0 -6.77174,2.810262 9.2572759,9.2572759 0 0 0 -2.81026,6.800067 9.2684037,9.2684037 0 0 0 2.81026,6.800066 9.2279391,9.2279391 0 0 0 6.77174,2.810263 z M 185.37032,80.89709 v -2.416745 h 2.41674 v 2.416745 z"
       fill="#192837"
       style="stroke-width:1.01161" />
  </g>
</svg>
