<?xml version="1.0" encoding="UTF-8" standalone="no"?>
<svg
   viewBox="0 0 24 24"
   version="1.1"
   id="svg4"
   sodipodi:docname="settings.svg"
   inkscape:version="1.1.2 (0a00cf5339, 2022-02-04, custom)"
   xmlns:inkscape="http://www.inkscape.org/namespaces/inkscape"
   xmlns:sodipodi="http://sodipodi.sourceforge.net/DTD/sodipodi-0.dtd"
   xmlns="http://www.w3.org/2000/svg"
   xmlns:svg="http://www.w3.org/2000/svg">
  <defs
     id="defs8" />
  <sodipodi:namedview
     id="namedview6"
     pagecolor="#505050"
     bordercolor="#eeeeee"
     borderopacity="1"
     inkscape:pageshadow="0"
     inkscape:pageopacity="0"
     inkscape:pagecheckerboard="0"
     showgrid="false"
     inkscape:zoom="14.121305"
     inkscape:cx="7.1169061"
     inkscape:cy="15.012777"
     inkscape:window-width="1920"
     inkscape:window-height="1029"
     inkscape:window-x="0"
     inkscape:window-y="27"
     inkscape:window-maximized="1"
     inkscape:current-layer="svg4" />
  <path
     d="m 22.910602,9.643803 h -1.8852 a 1.2468,1.2468 0 0 1 -1.1412,-0.8088 l -0.006,-0.0156 a 1.248,1.248 0 0 1 0.24,-1.3752 l 1.332,-1.332 a 1.212,1.212 0 0 0 0,-1.7136 l -1.68,-1.68 a 1.212,1.212 0 0 0 -1.7136,0 l -1.332,1.332 a 1.248,1.248 0 0 1 -1.3752,0.24 h -0.0156 a 1.248,1.248 0 0 1 -0.8124,-1.152 v -1.884 a 1.2108,1.2108 0 0 0 -1.2108,-1.21079999 h -2.3784 A 1.2108,1.2108 0 0 0 9.7214017,1.254603 v 1.884 a 1.248,1.248 0 0 1 -0.8088,1.1424 h -0.0156 a 1.248,1.248 0 0 1 -1.3752,-0.24 l -1.332,-1.332 a 1.212,1.212 0 0 0 -1.7136,0 l -1.68,1.68 a 1.212,1.212 0 0 0 0,1.7136 l 1.332,1.332 a 1.248,1.248 0 0 1 0.24,1.3752 v 0.0156 a 1.2468,1.2468 0 0 1 -1.1508,0.8184 h -1.8852 a 1.2108,1.2108 0 0 0 -1.21080001,1.2108 v 2.3784 a 1.2108,1.2108 0 0 0 1.21080001,1.2108 h 1.8852 a 1.2468,1.2468 0 0 1 1.1412,0.8088 v 0.0156 a 1.248,1.248 0 0 1 -0.24,1.3752 l -1.332,1.332 a 1.212,1.212 0 0 0 0,1.7136 l 1.68,1.68 a 1.212,1.212 0 0 0 1.7136,0 l 1.332,-1.332 a 1.248,1.248 0 0 1 1.3752,-0.24 l 0.0156,0.006 a 1.2468,1.2468 0 0 1 0.8184,1.1448 v 1.8852 a 1.2108,1.2108 0 0 0 1.2108003,1.2108 h 2.3784 a 1.2108,1.2108 0 0 0 1.2108,-1.2108 v -1.8852 a 1.2468,1.2468 0 0 1 0.8088,-1.1412 l 0.0156,-0.006 a 1.248,1.248 0 0 1 1.3752,0.24 l 1.332,1.332 a 1.212,1.212 0 0 0 1.7136,0 l 1.68,-1.68 a 1.212,1.212 0 0 0 0,-1.7136 l -1.332,-1.332 a 1.248,1.248 0 0 1 -0.24,-1.3752 l 0.006,-0.0156 a 1.2468,1.2468 0 0 1 1.1448,-0.8124 h 1.8852 a 1.2108,1.2108 0 0 0 1.2108,-1.2108 v -2.3784 a 1.2108,1.2108 0 0 0 -1.2108,-1.2108 z m -10.7892,6 a 3.6,3.6 0 1 1 3.6,-3.6 3.6,3.6 0 0 1 -3.6,3.6 z"
     id="path2"
     style="stroke-width:1.2" />
</svg>
